<svg width="150" height="86" viewBox="0 0 2119 454" fill="none" xmlns="http://www.w3.org/2000/svg">
<g clip-path="url(#clip0_1307_643)">
<path d="M894.113 0.0022583C885.554 0.00225141 877.187 2.53103 870.071 7.26881C862.954 12.0066 857.408 18.7406 854.132 26.6192C850.857 34.4979 850 43.1673 851.669 51.5312C853.339 59.8952 857.461 67.5779 863.513 73.608C869.565 79.638 877.276 83.7445 885.671 85.4082C894.065 87.0719 902.767 86.2181 910.674 82.9546C918.582 79.6912 925.341 74.1647 930.096 67.0742C934.851 59.9836 937.389 51.6473 937.389 43.1195C937.389 37.4572 936.27 31.8504 934.095 26.6192C931.92 21.388 928.732 16.6348 924.714 12.631C920.695 8.62718 915.925 5.45117 910.674 3.28432C905.424 1.11748 899.796 0.00224915 894.113 0.0022583V0.0022583ZM894.113 78.7868C887.033 78.7868 880.112 76.6949 874.225 72.7758C868.338 68.8566 863.75 63.2861 861.04 56.7688C858.331 50.2515 857.622 43.08 859.003 36.1613C860.385 29.2425 863.794 22.8872 868.8 17.8991C873.807 12.9109 880.185 9.51394 887.13 8.13771C894.074 6.76149 901.272 7.46786 907.813 10.1674C914.354 12.867 919.945 17.4385 923.879 23.304C927.812 29.1694 929.912 36.0653 929.912 43.1196C929.912 52.5791 926.14 61.6512 919.427 68.3401C912.713 75.029 903.608 78.7868 894.113 78.7868V78.7868ZM879.318 23.2858V62.9532H885.741V46.0993H889.517C891.337 45.9762 893.148 46.4572 894.665 47.4672C897.441 50.1191 899.716 53.2465 901.382 56.7002L904.912 62.953H912.757L907.903 55.1856C906.233 52.3597 904.26 49.7226 902.02 47.3206C901.031 46.419 899.884 45.7069 898.636 45.2201C901.75 45.1006 904.703 43.8086 906.898 41.605C907.896 40.6124 908.686 39.4316 909.22 38.1314C909.755 36.8312 910.024 35.4379 910.011 34.033C910.002 31.9509 909.352 29.9218 908.148 28.2197C906.949 26.4289 905.192 25.0813 903.147 24.385C899.84 23.5031 896.417 23.1324 892.998 23.2857L879.318 23.2858ZM899.494 29.3435C900.589 29.7492 901.537 30.4723 902.216 31.4197C903.006 32.5853 903.336 34.0014 903.142 35.395C902.947 36.7885 902.242 38.061 901.161 38.9672C898.861 40.313 896.191 40.8947 893.537 40.6282H885.741V28.6594H893.047C895.219 28.5398 897.396 28.7708 899.494 29.3434V29.3435Z" fill="#5B6670"/>
<path d="M730.044 310.682H730.039C724.494 345.335 691.807 373.428 657.027 373.428C622.247 373.428 598.543 345.335 604.088 310.682L630.875 143.318C636.42 108.665 669.107 80.5718 703.887 80.5718C738.667 80.5718 762.371 108.665 756.826 143.318L730.044 310.682ZM514.607 300.471C501.036 385.261 559.03 453.998 644.131 453.998C729.232 453.998 809.218 385.261 822.788 300.471H822.793L846.308 153.529C859.878 68.7384 801.884 0.00211826 716.783 0.00211826C631.682 0.00211826 551.697 68.7386 538.126 153.529L514.607 300.471ZM496.501 -6.10352e-05L424.27 84.3675L365.108 454H462.027L534.685 -7.8817e-06L496.501 -6.10352e-05ZM393.7 113.075H291.882L208.556 210.402L156.383 113.075H54.5633L145.941 283.537L0.00146484 454H101.819L185.146 356.673L237.319 454H339.138L247.76 283.537L393.7 113.075Z" fill="#EA564F"/>
<path d="M980.525 79.8997H1028.59C1049.1 79.8997 1064.07 85.7203 1073.51 97.3613C1082.95 108.886 1086.21 124.077 1083.3 142.936C1080.39 161.096 1072.99 175.531 1061.1 186.241C1049.22 196.834 1032.96 202.131 1012.34 202.131H961.123L980.525 79.8997ZM1050.61 139.094C1053.99 118.257 1045.66 107.838 1025.62 107.838H1008.32L997.829 174.192H1013.56C1023.58 174.192 1031.8 171.282 1038.2 165.461C1044.73 159.524 1048.87 150.735 1050.61 139.094Z" fill="#5B6670"/>
<path d="M1110.42 79.8997H1142.76L1123.36 202.131H1091.02L1110.42 79.8997Z" fill="#5B6670"/>
<path d="M1150.51 139.094C1151.91 130.48 1154.42 122.681 1158.03 115.696C1161.76 108.595 1166.13 102.716 1171.14 98.0598C1176.15 93.4033 1181.8 89.5036 1188.09 86.3605C1194.39 83.101 1200.68 80.7728 1206.97 79.3759C1213.38 77.979 1219.85 77.2805 1226.37 77.2805C1240.59 77.2805 1253.06 79.958 1263.78 85.3128L1259.23 114.474C1252.12 108.653 1242.04 105.743 1228.99 105.743C1218.39 105.743 1208.6 108.944 1199.63 115.347C1190.66 121.633 1185.18 130.829 1183.2 142.936C1182.62 147.825 1182.44 152.074 1182.68 155.683C1183.02 159.175 1184.02 162.202 1185.65 164.763C1187.39 167.207 1189.2 169.245 1191.07 170.874C1193.05 172.504 1195.38 173.785 1198.06 174.716C1200.74 175.531 1203.18 176.113 1205.4 176.462C1207.73 176.811 1210.12 176.986 1212.56 176.986C1216.64 176.986 1219.96 176.578 1222.53 175.764L1228.99 134.904H1259.58L1249.79 196.717C1237.21 202.072 1223.75 204.75 1209.42 204.75C1200.33 204.75 1191.94 203.411 1184.25 200.734C1176.56 198.056 1169.8 194.156 1163.97 189.034C1158.26 183.912 1154.13 177.044 1151.56 168.43C1149.12 159.815 1148.77 150.037 1150.51 139.094Z" fill="#5B6670"/>
<path d="M1287.77 79.8997H1320.11L1300.7 202.131H1268.37L1287.77 79.8997Z" fill="#5B6670"/>
<path d="M1333.81 79.8997H1435.18L1430.64 108.711H1396.2L1381.35 202.131H1349.01L1363.87 108.711H1329.26L1333.81 79.8997Z" fill="#5B6670"/>
<path d="M1534.89 202.131H1502.38L1498.36 182.923H1447.67L1437.71 202.131H1403.8L1471.27 79.8997H1506.22L1534.89 202.131ZM1479.48 122.157L1461.48 156.731H1492.94L1486.3 122.506C1485.48 118.781 1485.02 114.299 1484.9 109.061C1483.03 114.532 1481.23 118.897 1479.48 122.157Z" fill="#5B6670"/>
<path d="M1566 79.8997H1598.33L1583.48 173.319H1639.41L1634.86 202.131H1546.6L1566 79.8997Z" fill="#5B6670"/>
<path d="M1054.37 366.163H1021.86L1017.84 346.955H967.151L957.188 366.163H923.279L990.747 243.932H1025.7L1054.37 366.163ZM998.962 286.189L980.959 320.763H1012.42L1005.78 286.539C1004.96 282.813 1004.5 278.332 1004.38 273.093C1002.52 278.564 1000.71 282.93 998.962 286.189Z" fill="#5B6670"/>
<path d="M1100.16 366.163H1067.82L1087.22 243.932H1175.49L1170.95 272.744H1115.01L1100.16 366.163Z" fill="#5B6670"/>
<path d="M1190.87 243.932H1278.97L1274.6 271.871H1218.66L1215.69 290.555H1266.38L1262.01 318.319H1211.32L1208.18 338.225H1264.98L1260.61 366.163H1171.47L1190.87 243.932Z" fill="#5B6670"/>
<path d="M1378.11 243.932H1410.44L1391.04 366.163H1358.71L1366.05 319.541H1320.6L1313.26 366.163H1280.93L1300.33 243.932H1332.66L1325.32 290.729H1370.77L1378.11 243.932Z" fill="#5B6670"/>
<path d="M1425.78 243.932H1527.15L1522.61 272.744H1488.18L1473.32 366.163H1440.98L1455.84 272.744H1421.23L1425.78 243.932Z" fill="#5B6670"/>
<path d="M1523.99 303.127C1525.27 294.745 1527.78 287.062 1531.51 280.078C1535.35 273.093 1539.84 267.273 1544.97 262.616C1550.09 257.96 1555.74 254.002 1561.92 250.742C1568.21 247.367 1574.45 244.98 1580.62 243.583C1586.8 242.07 1592.86 241.313 1598.8 241.313C1612.32 241.313 1624.09 244.34 1634.11 250.393L1629.56 278.855C1622.81 272.686 1613.89 269.601 1602.82 269.601C1596.06 269.601 1589.6 270.707 1583.42 272.919C1577.36 275.014 1571.71 278.972 1566.47 284.792C1561.22 290.497 1557.96 297.598 1556.68 306.095C1554.93 316.922 1557.26 325.361 1563.67 331.415C1570.19 337.352 1578.47 340.32 1588.49 340.32C1600.84 340.32 1612.14 336.828 1622.4 329.843L1617.33 361.449C1607.07 366.338 1595.36 368.782 1582.2 368.782C1573.81 368.782 1565.82 367.444 1558.25 364.766C1550.79 361.972 1544.15 358.014 1538.32 352.892C1532.5 347.654 1528.24 340.728 1525.56 332.113C1522.88 323.499 1522.36 313.837 1523.99 303.127Z" fill="#5B6670"/>
<path d="M1646.05 243.932H1747.43L1742.88 272.744H1708.45L1693.59 366.163H1661.26L1676.11 272.744H1641.51L1646.05 243.932Z" fill="#5B6670"/>
<path d="M1763.06 243.932H1815.85C1829.02 243.932 1839.39 246.784 1846.96 252.489C1854.54 258.076 1857.51 266.167 1855.88 276.76C1853.9 289.332 1846.56 297.714 1833.85 301.905C1840.26 303.884 1845.16 307.551 1848.54 312.905C1852.03 318.144 1853.14 325.012 1851.86 333.51C1848.48 355.279 1830.36 366.163 1797.5 366.163H1743.66L1763.06 243.932ZM1820.4 328.795C1821.33 323.906 1820.51 320.472 1817.95 318.493C1815.5 316.398 1811.71 315.35 1806.59 315.35H1783.86L1779.84 340.844H1801.17C1812.36 340.844 1818.76 336.828 1820.4 328.795ZM1823.19 281.3C1824.82 273.268 1821.09 269.252 1812.01 269.252H1791.21L1787.71 291.777L1807.11 291.952C1811.31 291.952 1814.86 290.962 1817.77 288.983C1820.8 287.004 1822.61 284.443 1823.19 281.3Z" fill="#5B6670"/>
<path d="M1999.31 306.969C1996.51 324.43 1988.53 339.098 1975.36 350.972C1962.19 362.845 1945.53 368.782 1925.37 368.782C1904.86 368.782 1889.54 362.438 1879.4 349.749C1869.38 337.061 1865.83 321.52 1868.74 303.127C1871.54 285.665 1879.52 270.998 1892.69 259.124C1905.85 247.25 1922.52 241.313 1942.68 241.313C1955.96 241.313 1967.26 244.398 1976.59 250.568C1986.02 256.621 1992.61 264.595 1996.34 274.49C2000.18 284.385 2001.17 295.211 1999.31 306.969ZM1901.43 306.095C1899.91 315.758 1901.37 323.673 1905.8 329.843C1910.22 336.013 1917.39 339.098 1927.29 339.098C1938.02 339.098 1946.81 335.897 1953.69 329.494C1960.68 323.091 1964.99 314.593 1966.62 304C1968.14 294.338 1966.68 286.422 1962.25 280.252C1957.82 274.083 1950.66 270.998 1940.75 270.998C1930.03 270.998 1921.24 274.199 1914.36 280.602C1907.49 287.004 1903.17 295.502 1901.43 306.095Z" fill="#5B6670"/>
</g>
<defs>
<clipPath id="clip0_1307_643">
<rect width="2118.64" height="454" fill="white"/>
</clipPath>
</defs>
</svg>
