<svg width="10" height="18" viewBox="0 0 10 10" fill="none" xmlns="http://www.w3.org/2000/svg">
<path d="M2.14465 9.5V0.399999H5.55065C6.70332 0.399999 7.60898 0.659999 8.26765 1.18C8.93498 1.7 9.26865 2.44533 9.26865 3.416C9.26865 4.39533 8.93498 5.145 8.26765 5.665C7.60898 6.185 6.70332 6.445 5.55065 6.445H2.67765L3.10665 5.99V9.5H2.14465ZM3.10665 6.068L2.67765 5.626H5.56365C6.44765 5.626 7.12365 5.43533 7.59165 5.054C8.06832 4.67267 8.30665 4.131 8.30665 3.429C8.30665 2.727 8.06832 2.18533 7.59165 1.804C7.12365 1.42267 6.44765 1.232 5.56365 1.232H2.67765L3.10665 0.777V6.068ZM0.779648 7.81V7.238H6.03165V7.81H0.779648Z" fill="black"/>
</svg>
