<svg width="20" height="20" xmlns="http://www.w3.org/2000/svg">

 <g>
  <title>background</title>
  <rect fill="none" id="canvas_background" height="22" width="22" y="-1" x="-1"/>
 </g>
 <g>
  <title>Layer 1</title>
  <path id="svg_1" fill="#29282D" d="m-80.291011,19zm83.5417,0l0,-18.2l7.488,0c2.3923,0 4.2723,0.52 5.6423,1.56c1.386,1.02267 2.08,2.53933 2.08,4.55c0,1.99333 -0.694,3.51 -2.08,4.55c-1.37,1.0227 -3.25,1.534 -5.6423,1.534l-5.616,0l1.508,-1.56l0,7.566l-3.38,0zm3.38,-7.202l-1.508,-1.534l5.59,0c1.3866,0 2.4523,-0.286 3.1983,-0.858c0.762,-0.58933 1.144,-1.41267 1.144,-2.47c0,-1.05733 -0.382,-1.86333 -1.144,-2.418c-0.746,-0.572 -1.8117,-0.858 -3.1983,-0.858l-5.59,0l1.508,-1.664l0,9.802zm-5.98,4.498l0,-1.82l11.7003,0l0,1.82l-11.7003,0z"/>
 </g>
</svg>